<mxfile host="app.diagrams.net" modified="2024-06-11T18:31:18.829Z" agent="Mozilla/5.0 (Windows NT 10.0; Win64; x64) AppleWebKit/537.36 (KHTML, like Gecko) Chrome/125.0.0.0 Safari/537.36" etag="EuPEjphVPyjwee_lidiq" version="24.5.3" type="device">
  <diagram name="Page-1" id="f1b7ffb7-ca1e-a977-7cf5-a751b3c06c05">
    <mxGraphModel dx="1050" dy="557" grid="1" gridSize="10" guides="1" tooltips="1" connect="1" arrows="1" fold="1" page="1" pageScale="1" pageWidth="826" pageHeight="1169" background="none" math="0" shadow="0">
      <root>
        <mxCell id="0" />
        <mxCell id="1" parent="0" />
        <mxCell id="ylPcNcEXOAvtPoZ6D2o4-75" value="" style="swimlane;startSize=0;" parent="1" vertex="1">
          <mxGeometry width="830" height="680" as="geometry" />
        </mxCell>
        <mxCell id="ylPcNcEXOAvtPoZ6D2o4-73" value="" style="line;strokeWidth=1" parent="ylPcNcEXOAvtPoZ6D2o4-75" vertex="1">
          <mxGeometry y="610" width="826" height="10" as="geometry" />
        </mxCell>
        <mxCell id="SU2DJEcVdpv21ts9uff0-31" value="" style="verticalLabelPosition=bottom;verticalAlign=top;strokeWidth=1;shape=mxgraph.mockup.graphics.iconGrid;strokeColor=#CCCCCC;gridSize=1,1;" vertex="1" parent="ylPcNcEXOAvtPoZ6D2o4-75">
          <mxGeometry x="610" y="140" width="180" height="180" as="geometry" />
        </mxCell>
        <mxCell id="SU2DJEcVdpv21ts9uff0-59" value="4" style="ellipse;shape=doubleEllipse;whiteSpace=wrap;html=1;aspect=fixed;" vertex="1" parent="ylPcNcEXOAvtPoZ6D2o4-75">
          <mxGeometry x="530" y="610" width="70" height="70" as="geometry" />
        </mxCell>
        <mxCell id="13" value="" style="verticalLabelPosition=bottom;verticalAlign=top;strokeWidth=1;shape=mxgraph.mockup.graphics.iconGrid;strokeColor=#CCCCCC;gridSize=1,1;" parent="1" vertex="1">
          <mxGeometry x="190" y="140" width="180" height="180" as="geometry" />
        </mxCell>
        <mxCell id="2" value="Admin" style="text;spacingTop=-5;fontSize=18;fontStyle=0" parent="1" vertex="1">
          <mxGeometry x="70" y="30" width="230" height="20" as="geometry" />
        </mxCell>
        <mxCell id="3" value="" style="line;strokeWidth=1" parent="1" vertex="1">
          <mxGeometry x="20" y="60" width="780" height="10" as="geometry" />
        </mxCell>
        <mxCell id="4" value="" style="line;strokeWidth=1" parent="1" vertex="1">
          <mxGeometry x="20" y="90" width="780" height="10" as="geometry" />
        </mxCell>
        <mxCell id="5" value="Home" style="text;spacingTop=-5;" parent="1" vertex="1">
          <mxGeometry x="20" y="70.00000000000009" width="30" height="20" as="geometry" />
        </mxCell>
        <mxCell id="8" value="Dashboard" style="text;spacingTop=-5;" parent="1" vertex="1">
          <mxGeometry x="190" y="110" width="150" height="20" as="geometry" />
        </mxCell>
        <mxCell id="11" value="Account Details" style="text;spacingTop=-5;" parent="1" vertex="1">
          <mxGeometry x="710" y="70.00000000000013" width="30" height="20" as="geometry" />
        </mxCell>
        <mxCell id="20" value="" style="verticalLabelPosition=bottom;verticalAlign=top;strokeWidth=1;shape=mxgraph.mockup.graphics.iconGrid;strokeColor=#CCCCCC;gridSize=1,1;" parent="1" vertex="1">
          <mxGeometry x="20" y="15" width="40" height="40" as="geometry" />
        </mxCell>
        <mxCell id="21" value="&#xa;Logo" style="text;spacingTop=-5;align=center" parent="1" vertex="1">
          <mxGeometry x="20" y="20" width="40" height="40" as="geometry" />
        </mxCell>
        <mxCell id="ylPcNcEXOAvtPoZ6D2o4-65" value="" style="verticalLabelPosition=bottom;verticalAlign=top;strokeWidth=1;shape=mxgraph.mockup.graphics.iconGrid;strokeColor=#CCCCCC;gridSize=1,1;" parent="1" vertex="1">
          <mxGeometry x="400" y="140" width="180" height="180" as="geometry" />
        </mxCell>
        <mxCell id="ylPcNcEXOAvtPoZ6D2o4-66" value="Option 1" style="strokeWidth=1;shadow=0;dashed=0;align=center;html=1;shape=mxgraph.mockup.forms.comboBox;strokeColor=#999999;fillColor=#ddeeff;align=left;fillColor2=#aaddff;mainText=;fontColor=#666666;fontSize=17;spacingLeft=3;" parent="1" vertex="1">
          <mxGeometry x="10" y="160" width="150" height="30" as="geometry" />
        </mxCell>
        <mxCell id="ylPcNcEXOAvtPoZ6D2o4-67" value="Invoices" style="strokeWidth=1;shadow=0;dashed=0;align=center;html=1;shape=mxgraph.mockup.forms.comboBox;strokeColor=#999999;fillColor=#ddeeff;align=left;fillColor2=#aaddff;mainText=;fontColor=#666666;fontSize=17;spacingLeft=3;" parent="1" vertex="1">
          <mxGeometry x="10" y="205" width="150" height="30" as="geometry" />
        </mxCell>
        <mxCell id="ylPcNcEXOAvtPoZ6D2o4-68" value="Products" style="strokeWidth=1;shadow=0;dashed=0;align=center;html=1;shape=mxgraph.mockup.forms.comboBox;strokeColor=#999999;fillColor=#ddeeff;align=left;fillColor2=#aaddff;mainText=;fontColor=#666666;fontSize=17;spacingLeft=3;" parent="1" vertex="1">
          <mxGeometry x="10" y="250" width="150" height="30" as="geometry" />
        </mxCell>
        <mxCell id="ylPcNcEXOAvtPoZ6D2o4-69" value="Profile" style="strokeWidth=1;shadow=0;dashed=0;align=center;html=1;shape=mxgraph.mockup.forms.comboBox;strokeColor=#999999;fillColor=#ddeeff;align=left;fillColor2=#aaddff;mainText=;fontColor=#666666;fontSize=17;spacingLeft=3;" parent="1" vertex="1">
          <mxGeometry x="10" y="300" width="150" height="30" as="geometry" />
        </mxCell>
        <mxCell id="ylPcNcEXOAvtPoZ6D2o4-70" value="Dashboard" style="text;spacingTop=-5;fontSize=18;fontStyle=0" parent="1" vertex="1">
          <mxGeometry x="10" y="120" width="230" height="20" as="geometry" />
        </mxCell>
        <mxCell id="SU2DJEcVdpv21ts9uff0-32" value="Customer Invoices" style="shape=table;startSize=30;container=1;collapsible=0;childLayout=tableLayout;strokeColor=default;fontSize=16;" vertex="1" parent="1">
          <mxGeometry x="180" y="400" width="580" height="150" as="geometry" />
        </mxCell>
        <mxCell id="SU2DJEcVdpv21ts9uff0-33" value="" style="shape=tableRow;horizontal=0;startSize=0;swimlaneHead=0;swimlaneBody=0;strokeColor=inherit;top=0;left=0;bottom=0;right=0;collapsible=0;dropTarget=0;fillColor=none;points=[[0,0.5],[1,0.5]];portConstraint=eastwest;fontSize=16;" vertex="1" parent="SU2DJEcVdpv21ts9uff0-32">
          <mxGeometry y="30" width="580" height="40" as="geometry" />
        </mxCell>
        <mxCell id="SU2DJEcVdpv21ts9uff0-34" value="Invoice Date" style="shape=partialRectangle;html=1;whiteSpace=wrap;connectable=0;strokeColor=inherit;overflow=hidden;fillColor=none;top=0;left=0;bottom=0;right=0;pointerEvents=1;fontSize=16;" vertex="1" parent="SU2DJEcVdpv21ts9uff0-33">
          <mxGeometry width="64" height="40" as="geometry">
            <mxRectangle width="64" height="40" as="alternateBounds" />
          </mxGeometry>
        </mxCell>
        <mxCell id="SU2DJEcVdpv21ts9uff0-35" value="Due Date" style="shape=partialRectangle;html=1;whiteSpace=wrap;connectable=0;strokeColor=inherit;overflow=hidden;fillColor=none;top=0;left=0;bottom=0;right=0;pointerEvents=1;fontSize=16;" vertex="1" parent="SU2DJEcVdpv21ts9uff0-33">
          <mxGeometry x="64" width="126" height="40" as="geometry">
            <mxRectangle width="126" height="40" as="alternateBounds" />
          </mxGeometry>
        </mxCell>
        <mxCell id="SU2DJEcVdpv21ts9uff0-36" value="Subtotal" style="shape=partialRectangle;html=1;whiteSpace=wrap;connectable=0;strokeColor=inherit;overflow=hidden;fillColor=none;top=0;left=0;bottom=0;right=0;pointerEvents=1;fontSize=16;" vertex="1" parent="SU2DJEcVdpv21ts9uff0-33">
          <mxGeometry x="190" width="110" height="40" as="geometry">
            <mxRectangle width="110" height="40" as="alternateBounds" />
          </mxGeometry>
        </mxCell>
        <mxCell id="SU2DJEcVdpv21ts9uff0-37" value="Tax" style="shape=partialRectangle;html=1;whiteSpace=wrap;connectable=0;strokeColor=inherit;overflow=hidden;fillColor=none;top=0;left=0;bottom=0;right=0;pointerEvents=1;fontSize=16;" vertex="1" parent="SU2DJEcVdpv21ts9uff0-33">
          <mxGeometry x="300" width="70" height="40" as="geometry">
            <mxRectangle width="70" height="40" as="alternateBounds" />
          </mxGeometry>
        </mxCell>
        <mxCell id="SU2DJEcVdpv21ts9uff0-38" value="TotalAmount" style="shape=partialRectangle;html=1;whiteSpace=wrap;connectable=0;strokeColor=inherit;overflow=hidden;fillColor=none;top=0;left=0;bottom=0;right=0;pointerEvents=1;fontSize=16;" vertex="1" parent="SU2DJEcVdpv21ts9uff0-33">
          <mxGeometry x="370" width="100" height="40" as="geometry">
            <mxRectangle width="100" height="40" as="alternateBounds" />
          </mxGeometry>
        </mxCell>
        <mxCell id="SU2DJEcVdpv21ts9uff0-39" value="Status" style="shape=partialRectangle;html=1;whiteSpace=wrap;connectable=0;strokeColor=inherit;overflow=hidden;fillColor=none;top=0;left=0;bottom=0;right=0;pointerEvents=1;fontSize=16;" vertex="1" parent="SU2DJEcVdpv21ts9uff0-33">
          <mxGeometry x="470" width="110" height="40" as="geometry">
            <mxRectangle width="110" height="40" as="alternateBounds" />
          </mxGeometry>
        </mxCell>
        <mxCell id="SU2DJEcVdpv21ts9uff0-40" value="" style="shape=tableRow;horizontal=0;startSize=0;swimlaneHead=0;swimlaneBody=0;strokeColor=inherit;top=0;left=0;bottom=0;right=0;collapsible=0;dropTarget=0;fillColor=none;points=[[0,0.5],[1,0.5]];portConstraint=eastwest;fontSize=16;" vertex="1" parent="SU2DJEcVdpv21ts9uff0-32">
          <mxGeometry y="70" width="580" height="40" as="geometry" />
        </mxCell>
        <mxCell id="SU2DJEcVdpv21ts9uff0-41" value="" style="shape=partialRectangle;html=1;whiteSpace=wrap;connectable=0;strokeColor=inherit;overflow=hidden;fillColor=none;top=0;left=0;bottom=0;right=0;pointerEvents=1;fontSize=16;" vertex="1" parent="SU2DJEcVdpv21ts9uff0-40">
          <mxGeometry width="64" height="40" as="geometry">
            <mxRectangle width="64" height="40" as="alternateBounds" />
          </mxGeometry>
        </mxCell>
        <mxCell id="SU2DJEcVdpv21ts9uff0-42" value="" style="shape=partialRectangle;html=1;whiteSpace=wrap;connectable=0;strokeColor=inherit;overflow=hidden;fillColor=none;top=0;left=0;bottom=0;right=0;pointerEvents=1;fontSize=16;" vertex="1" parent="SU2DJEcVdpv21ts9uff0-40">
          <mxGeometry x="64" width="126" height="40" as="geometry">
            <mxRectangle width="126" height="40" as="alternateBounds" />
          </mxGeometry>
        </mxCell>
        <mxCell id="SU2DJEcVdpv21ts9uff0-43" value="" style="shape=partialRectangle;html=1;whiteSpace=wrap;connectable=0;strokeColor=inherit;overflow=hidden;fillColor=none;top=0;left=0;bottom=0;right=0;pointerEvents=1;fontSize=16;" vertex="1" parent="SU2DJEcVdpv21ts9uff0-40">
          <mxGeometry x="190" width="110" height="40" as="geometry">
            <mxRectangle width="110" height="40" as="alternateBounds" />
          </mxGeometry>
        </mxCell>
        <mxCell id="SU2DJEcVdpv21ts9uff0-44" style="shape=partialRectangle;html=1;whiteSpace=wrap;connectable=0;strokeColor=inherit;overflow=hidden;fillColor=none;top=0;left=0;bottom=0;right=0;pointerEvents=1;fontSize=16;" vertex="1" parent="SU2DJEcVdpv21ts9uff0-40">
          <mxGeometry x="300" width="70" height="40" as="geometry">
            <mxRectangle width="70" height="40" as="alternateBounds" />
          </mxGeometry>
        </mxCell>
        <mxCell id="SU2DJEcVdpv21ts9uff0-45" style="shape=partialRectangle;html=1;whiteSpace=wrap;connectable=0;strokeColor=inherit;overflow=hidden;fillColor=none;top=0;left=0;bottom=0;right=0;pointerEvents=1;fontSize=16;" vertex="1" parent="SU2DJEcVdpv21ts9uff0-40">
          <mxGeometry x="370" width="100" height="40" as="geometry">
            <mxRectangle width="100" height="40" as="alternateBounds" />
          </mxGeometry>
        </mxCell>
        <mxCell id="SU2DJEcVdpv21ts9uff0-46" style="shape=partialRectangle;html=1;whiteSpace=wrap;connectable=0;strokeColor=inherit;overflow=hidden;fillColor=none;top=0;left=0;bottom=0;right=0;pointerEvents=1;fontSize=16;" vertex="1" parent="SU2DJEcVdpv21ts9uff0-40">
          <mxGeometry x="470" width="110" height="40" as="geometry">
            <mxRectangle width="110" height="40" as="alternateBounds" />
          </mxGeometry>
        </mxCell>
        <mxCell id="SU2DJEcVdpv21ts9uff0-47" value="" style="shape=tableRow;horizontal=0;startSize=0;swimlaneHead=0;swimlaneBody=0;strokeColor=inherit;top=0;left=0;bottom=0;right=0;collapsible=0;dropTarget=0;fillColor=none;points=[[0,0.5],[1,0.5]];portConstraint=eastwest;fontSize=16;" vertex="1" parent="SU2DJEcVdpv21ts9uff0-32">
          <mxGeometry y="110" width="580" height="40" as="geometry" />
        </mxCell>
        <mxCell id="SU2DJEcVdpv21ts9uff0-48" value="" style="shape=partialRectangle;html=1;whiteSpace=wrap;connectable=0;strokeColor=inherit;overflow=hidden;fillColor=none;top=0;left=0;bottom=0;right=0;pointerEvents=1;fontSize=16;" vertex="1" parent="SU2DJEcVdpv21ts9uff0-47">
          <mxGeometry width="64" height="40" as="geometry">
            <mxRectangle width="64" height="40" as="alternateBounds" />
          </mxGeometry>
        </mxCell>
        <mxCell id="SU2DJEcVdpv21ts9uff0-49" value="" style="shape=partialRectangle;html=1;whiteSpace=wrap;connectable=0;strokeColor=inherit;overflow=hidden;fillColor=none;top=0;left=0;bottom=0;right=0;pointerEvents=1;fontSize=16;" vertex="1" parent="SU2DJEcVdpv21ts9uff0-47">
          <mxGeometry x="64" width="126" height="40" as="geometry">
            <mxRectangle width="126" height="40" as="alternateBounds" />
          </mxGeometry>
        </mxCell>
        <mxCell id="SU2DJEcVdpv21ts9uff0-50" value="" style="shape=partialRectangle;html=1;whiteSpace=wrap;connectable=0;strokeColor=inherit;overflow=hidden;fillColor=none;top=0;left=0;bottom=0;right=0;pointerEvents=1;fontSize=16;" vertex="1" parent="SU2DJEcVdpv21ts9uff0-47">
          <mxGeometry x="190" width="110" height="40" as="geometry">
            <mxRectangle width="110" height="40" as="alternateBounds" />
          </mxGeometry>
        </mxCell>
        <mxCell id="SU2DJEcVdpv21ts9uff0-51" style="shape=partialRectangle;html=1;whiteSpace=wrap;connectable=0;strokeColor=inherit;overflow=hidden;fillColor=none;top=0;left=0;bottom=0;right=0;pointerEvents=1;fontSize=16;" vertex="1" parent="SU2DJEcVdpv21ts9uff0-47">
          <mxGeometry x="300" width="70" height="40" as="geometry">
            <mxRectangle width="70" height="40" as="alternateBounds" />
          </mxGeometry>
        </mxCell>
        <mxCell id="SU2DJEcVdpv21ts9uff0-52" style="shape=partialRectangle;html=1;whiteSpace=wrap;connectable=0;strokeColor=inherit;overflow=hidden;fillColor=none;top=0;left=0;bottom=0;right=0;pointerEvents=1;fontSize=16;" vertex="1" parent="SU2DJEcVdpv21ts9uff0-47">
          <mxGeometry x="370" width="100" height="40" as="geometry">
            <mxRectangle width="100" height="40" as="alternateBounds" />
          </mxGeometry>
        </mxCell>
        <mxCell id="SU2DJEcVdpv21ts9uff0-53" style="shape=partialRectangle;html=1;whiteSpace=wrap;connectable=0;strokeColor=inherit;overflow=hidden;fillColor=none;top=0;left=0;bottom=0;right=0;pointerEvents=1;fontSize=16;" vertex="1" parent="SU2DJEcVdpv21ts9uff0-47">
          <mxGeometry x="470" width="110" height="40" as="geometry">
            <mxRectangle width="110" height="40" as="alternateBounds" />
          </mxGeometry>
        </mxCell>
        <mxCell id="SU2DJEcVdpv21ts9uff0-54" value="" style="rounded=0;whiteSpace=wrap;html=1;" vertex="1" parent="1">
          <mxGeometry x="180" y="547" width="580" height="30" as="geometry" />
        </mxCell>
        <mxCell id="SU2DJEcVdpv21ts9uff0-55" value="View More" style="fillColor=none;strokeColor=none;html=1;fontColor=#0057D8;align=center;verticalAlign=middle;fontStyle=4;fontSize=12" vertex="1" parent="1">
          <mxGeometry x="427" y="544" width="86" height="33" as="geometry" />
        </mxCell>
        <mxCell id="SU2DJEcVdpv21ts9uff0-56" value="2" style="ellipse;shape=doubleEllipse;whiteSpace=wrap;html=1;aspect=fixed;" vertex="1" parent="1">
          <mxGeometry x="110" y="230" width="70" height="70" as="geometry" />
        </mxCell>
        <mxCell id="SU2DJEcVdpv21ts9uff0-57" value="1" style="ellipse;shape=doubleEllipse;whiteSpace=wrap;html=1;aspect=fixed;" vertex="1" parent="1">
          <mxGeometry x="310" width="70" height="70" as="geometry" />
        </mxCell>
        <mxCell id="SU2DJEcVdpv21ts9uff0-58" value="3" style="ellipse;shape=doubleEllipse;whiteSpace=wrap;html=1;aspect=fixed;" vertex="1" parent="1">
          <mxGeometry x="488" y="120" width="70" height="70" as="geometry" />
        </mxCell>
        <mxCell id="SU2DJEcVdpv21ts9uff0-60" value="&lt;ol style=&quot;font-size: 16px;&quot;&gt;&lt;li style=&quot;font-size: 16px;&quot;&gt;Navigation Bar Component&lt;/li&gt;&lt;li style=&quot;font-size: 16px;&quot;&gt;Side bar Component&lt;/li&gt;&lt;li style=&quot;font-size: 16px;&quot;&gt;Main Body Component&lt;/li&gt;&lt;li style=&quot;font-size: 16px;&quot;&gt;Footer Component&lt;/li&gt;&lt;/ol&gt;" style="text;strokeColor=none;fillColor=none;html=1;whiteSpace=wrap;verticalAlign=middle;overflow=hidden;fontSize=16;" vertex="1" parent="1">
          <mxGeometry x="840" y="95" width="220" height="160" as="geometry" />
        </mxCell>
      </root>
    </mxGraphModel>
  </diagram>
</mxfile>
